<?xml version="1.0" encoding="UTF-8"?>
<svg id="Logo_DE" xmlns="http://www.w3.org/2000/svg" version="1.1" viewBox="0 0 284.2 76.5" style="display:block;height:100%;width:auto">
  <!-- Generator: Adobe Illustrator 30.2.1, SVG Export Plug-In . SVG Version: 2.1.1 Build 1)  -->
  <defs>
    <style>
      .st0 {
        fill: #1d1d1b;
      }
    </style>
  </defs>
  <g>
    <path d="M76.9,45.5c-2.2,0-3.9-.8-5.1-2.5-1.2-1.7-1.9-4-1.9-7s.6-5.4,1.9-7.1c1.3-1.7,3-2.5,5.2-2.5s4.1.9,5.3,2.7h.2c-.3-1.4-.4-2.6-.4-3.7v-5.9h5v25.7h-3.9l-1-2.4h-.2c-1.1,1.8-2.9,2.7-5.2,2.7ZM78.7,41.5c1.3,0,2.2-.4,2.8-1.1.6-.7.9-2,1-3.8v-.5c0-2-.3-3.4-.9-4.3-.6-.9-1.6-1.3-3-1.3s-2,.5-2.6,1.4c-.6,1-.9,2.3-.9,4.2s.3,3.2.9,4.1c.6.9,1.5,1.4,2.7,1.4Z"/>
    <path d="M100.8,45.5c-3,0-5.3-.8-7-2.5s-2.5-4-2.5-7,.8-5.5,2.3-7.2c1.5-1.7,3.7-2.5,6.4-2.5s4.6.7,6.1,2.2,2.2,3.5,2.2,6.2v2.4h-11.9c0,1.4.5,2.5,1.3,3.3.8.8,1.9,1.2,3.3,1.2s2.2-.1,3.2-.3,2-.6,3.1-1.1v3.9c-.9.4-1.8.8-2.8,1-1,.2-2.2.3-3.7.3ZM100.1,30c-1.1,0-1.9.3-2.5,1s-1,1.6-1,2.9h7.1c0-1.2-.3-2.2-1-2.9s-1.5-1-2.5-1Z"/>
    <path d="M119.9,45.5c-5.7,0-8.6-3.2-8.6-9.5s.8-5.5,2.3-7.2c1.6-1.7,3.8-2.5,6.7-2.5s4,.4,5.7,1.3l-1.5,3.9c-.8-.3-1.5-.6-2.2-.8-.7-.2-1.4-.3-2-.3-2.6,0-3.9,1.9-3.9,5.6s1.3,5.4,3.9,5.4,1.9-.1,2.7-.4,1.7-.7,2.5-1.2v4.3c-.8.5-1.6.9-2.5,1.1-.8.2-1.9.3-3.1.3Z"/>
    <path d="M134.8,45.2h-5v-25.7h5v25.7Z"/>
    <path d="M151.8,45.2l-1-2.5h-.1c-.8,1.1-1.7,1.8-2.6,2.2s-2.1.6-3.5.6-3.2-.5-4.2-1.5c-1-1-1.5-2.5-1.5-4.3s.7-3.4,2.1-4.3c1.4-.9,3.4-1.4,6.2-1.5h3.2v-.9c0-1.9-1-2.8-2.9-2.8s-3.2.4-5.2,1.3l-1.7-3.4c2.1-1.1,4.5-1.7,7.1-1.7s4.4.5,5.7,1.6,2,2.7,2,4.9v12.3h-3.5ZM150.3,36.6h-1.9c-1.5.1-2.6.4-3.3.9-.7.5-1.1,1.2-1.1,2.2,0,1.4.8,2.1,2.4,2.1s2.1-.3,2.8-1c.7-.7,1-1.6,1-2.7v-1.5Z"/>
    <path d="M170.8,26.4c.7,0,1.2,0,1.7.1l-.4,4.7c-.4-.1-.9-.2-1.5-.2-1.6,0-2.9.4-3.8,1.2s-1.3,2-1.3,3.5v9.4h-5v-18.5h3.8l.7,3.1h.2c.6-1,1.3-1.9,2.3-2.5,1-.6,2-.9,3.2-.9Z"/>
    <path d="M175.6,22c0-1.6.9-2.5,2.7-2.5s2.7.8,2.7,2.5-.2,1.4-.7,1.8c-.5.4-1.1.7-2.1.7-1.8,0-2.7-.8-2.7-2.5ZM180.9,45.2h-5v-18.5h5v18.5Z"/>
    <path d="M203.2,45.2h-5v-10.8c0-1.3-.2-2.3-.7-3-.5-.7-1.2-1-2.3-1s-2.4.5-3.1,1.4c-.6.9-.9,2.5-.9,4.7v8.7h-5v-18.5h3.8l.7,2.4h.3c.6-.9,1.3-1.6,2.3-2,1-.5,2.1-.7,3.4-.7,2.1,0,3.8.6,4.9,1.7,1.1,1.2,1.7,2.8,1.7,5v12Z"/>
    <path d="M225.1,35.9c0,3-.8,5.4-2.4,7-1.6,1.7-3.8,2.5-6.6,2.5s-3.3-.4-4.7-1.2c-1.4-.8-2.4-1.9-3.1-3.3-.7-1.5-1.1-3.1-1.1-5.1,0-3,.8-5.4,2.4-7,1.6-1.7,3.8-2.5,6.6-2.5s3.3.4,4.7,1.2c1.4.8,2.4,1.9,3.1,3.3.7,1.4,1.1,3.1,1.1,5.1ZM212.4,35.9c0,1.8.3,3.2.9,4.1.6.9,1.6,1.4,2.9,1.4s2.3-.5,2.9-1.4.9-2.3.9-4.2-.3-3.2-.9-4.1c-.6-.9-1.6-1.4-2.9-1.4s-2.3.5-2.9,1.4c-.6.9-.9,2.3-.9,4.1Z"/>
    <path d="M228.6,42.8c0-.9.2-1.6.7-2.1.5-.5,1.2-.7,2.2-.7s1.6.2,2.1.7c.5.5.8,1.2.8,2.1s-.3,1.6-.8,2.1c-.5.5-1.2.8-2.1.8s-1.6-.2-2.1-.7-.8-1.2-.8-2.1Z"/>
    <path d="M246.4,45.5c-5.7,0-8.6-3.2-8.6-9.5s.8-5.5,2.3-7.2c1.6-1.7,3.8-2.5,6.7-2.5s4,.4,5.7,1.3l-1.5,3.9c-.8-.3-1.5-.6-2.2-.8-.7-.2-1.4-.3-2-.3-2.6,0-3.9,1.9-3.9,5.6s1.3,5.4,3.9,5.4,1.9-.1,2.7-.4,1.7-.7,2.5-1.2v4.3c-.8.5-1.6.9-2.5,1.1-.8.2-1.9.3-3.1.3Z"/>
    <path d="M273.3,45.2h-5v-10.8c0-2.7-1-4-3-4s-2.4.5-3.1,1.4-.9,2.5-.9,4.7v8.7h-5v-25.7h5v5.2c0,.4,0,1.4-.1,2.9v1.5c-.1,0,.1,0,.1,0,1.1-1.8,2.9-2.7,5.3-2.7s3.8.6,4.9,1.7,1.7,2.8,1.7,5v12Z"/>
  </g>
  <g>
    <path class="st0" d="M69.8,68.6v-15.3h1.8v13.7h6.7v1.6h-8.5Z"/>
    <path class="st0" d="M82.1,53.3l-.4,5.5h-1.1l-.4-5.5h1.9Z"/>
    <path class="st0" d="M92.4,68.6l-.3-1.6h0c-.6.7-1.1,1.2-1.7,1.5-.6.3-1.3.4-2.1.4s-2-.3-2.7-.9c-.6-.6-1-1.4-1-2.5,0-2.3,1.8-3.5,5.5-3.6h1.9v-.8c0-.9-.2-1.6-.6-2-.4-.4-1-.6-1.9-.6s-2,.3-3.2.9l-.5-1.3c.6-.3,1.2-.5,1.9-.7s1.3-.3,2-.3c1.4,0,2.4.3,3,.9.7.6,1,1.6,1,2.9v7.8h-1.3ZM88.4,67.3c1.1,0,1.9-.3,2.5-.9s.9-1.4.9-2.5v-1h-1.7c-1.4.1-2.4.3-3,.7-.6.4-.9,1-.9,1.8s.2,1.1.6,1.4.9.5,1.6.5Z"/>
    <path class="st0" d="M104.6,65.4c0,1.1-.4,1.9-1.2,2.5-.8.6-1.9.9-3.3.9s-2.7-.2-3.6-.7v-1.6c.5.3,1.1.5,1.8.7.6.2,1.2.2,1.8.2.9,0,1.6-.1,2.1-.4s.7-.7.7-1.3-.2-.8-.6-1.1c-.4-.3-1.1-.7-2.3-1.1-1.1-.4-1.8-.7-2.3-1s-.8-.6-1-1c-.2-.4-.3-.8-.3-1.3,0-.9.4-1.7,1.1-2.2.8-.5,1.8-.8,3.1-.8s2.4.3,3.6.8l-.6,1.4c-1.1-.5-2.2-.7-3.1-.7s-1.4.1-1.9.4c-.4.3-.6.6-.6,1.1s0,.6.2.8c.2.2.4.4.8.6.3.2,1,.5,2,.8,1.4.5,2.3,1,2.8,1.5s.7,1.1.7,1.9Z"/>
    <path class="st0" d="M114.8,65.4c0,1.1-.4,1.9-1.2,2.5-.8.6-1.9.9-3.3.9s-2.7-.2-3.6-.7v-1.6c.5.3,1.1.5,1.8.7.6.2,1.2.2,1.8.2.9,0,1.6-.1,2.1-.4s.7-.7.7-1.3-.2-.8-.6-1.1c-.4-.3-1.1-.7-2.3-1.1-1.1-.4-1.8-.7-2.3-1s-.8-.6-1-1c-.2-.4-.3-.8-.3-1.3,0-.9.4-1.7,1.1-2.2.8-.5,1.8-.8,3.1-.8s2.4.3,3.6.8l-.6,1.4c-1.1-.5-2.2-.7-3.1-.7s-1.4.1-1.9.4c-.4.3-.6.6-.6,1.1s0,.6.2.8c.2.2.4.4.8.6.3.2,1,.5,2,.8,1.4.5,2.3,1,2.8,1.5s.7,1.1.7,1.9Z"/>
    <path class="st0" d="M117.5,54c0-.4,0-.7.3-.9.2-.2.4-.3.7-.3s.5,0,.7.3c.2.2.3.5.3.9s-.1.7-.3.9c-.2.2-.4.3-.7.3s-.5,0-.7-.3c-.2-.2-.3-.5-.3-.9ZM119.4,68.6h-1.7v-11.4h1.7v11.4Z"/>
    <path class="st0" d="M130.4,65.4c0,1.1-.4,1.9-1.2,2.5-.8.6-1.9.9-3.3.9s-2.7-.2-3.6-.7v-1.6c.5.3,1.1.5,1.8.7.6.2,1.2.2,1.8.2.9,0,1.6-.1,2.1-.4s.7-.7.7-1.3-.2-.8-.6-1.1c-.4-.3-1.1-.7-2.3-1.1-1.1-.4-1.8-.7-2.3-1s-.8-.6-1-1c-.2-.4-.3-.8-.3-1.3,0-.9.4-1.7,1.1-2.2.8-.5,1.8-.8,3.1-.8s2.4.3,3.6.8l-.6,1.4c-1.1-.5-2.2-.7-3.1-.7s-1.4.1-1.9.4c-.4.3-.6.6-.6,1.1s0,.6.2.8c.2.2.4.4.8.6.3.2,1,.5,2,.8,1.4.5,2.3,1,2.8,1.5s.7,1.1.7,1.9Z"/>
    <path class="st0" d="M136.9,67.3c.3,0,.6,0,.9,0,.3,0,.5,0,.7-.1v1.3c-.2,0-.5.2-.8.2-.4,0-.7,0-1,0-2.2,0-3.3-1.2-3.3-3.5v-6.8h-1.6v-.8l1.6-.7.7-2.4h1v2.7h3.3v1.3h-3.3v6.7c0,.7.2,1.2.5,1.6s.8.6,1.3.6Z"/>
    <path class="st0" d="M147.8,68.6l-.3-1.6h0c-.6.7-1.1,1.2-1.7,1.5-.6.3-1.3.4-2.1.4s-2-.3-2.7-.9c-.6-.6-1-1.4-1-2.5,0-2.3,1.8-3.5,5.5-3.6h1.9v-.8c0-.9-.2-1.6-.6-2-.4-.4-1-.6-1.9-.6s-2,.3-3.2.9l-.5-1.3c.6-.3,1.2-.5,1.9-.7s1.3-.3,2-.3c1.4,0,2.4.3,3,.9.7.6,1,1.6,1,2.9v7.8h-1.3ZM143.9,67.3c1.1,0,1.9-.3,2.5-.9s.9-1.4.9-2.5v-1h-1.7c-1.4.1-2.4.3-3,.7-.6.4-.9,1-.9,1.8s.2,1.1.6,1.4.9.5,1.6.5Z"/>
    <path class="st0" d="M160.5,68.6v-7.4c0-.9-.2-1.6-.6-2.1-.4-.5-1.1-.7-2-.7s-2.1.3-2.6,1c-.6.6-.8,1.7-.8,3.2v6h-1.7v-11.4h1.4l.3,1.6h0c.4-.6.9-1,1.5-1.3s1.4-.5,2.1-.5c1.4,0,2.4.3,3.1,1,.7.7,1,1.7,1,3.2v7.5h-1.7Z"/>
    <path class="st0" d="M169.5,67.3c.3,0,.6,0,.9,0,.3,0,.5,0,.7-.1v1.3c-.2,0-.5.2-.8.2-.4,0-.7,0-1,0-2.2,0-3.3-1.2-3.3-3.5v-6.8h-1.6v-.8l1.6-.7.7-2.4h1v2.7h3.3v1.3h-3.3v6.7c0,.7.2,1.2.5,1.6s.8.6,1.3.6Z"/>
    <path class="st0" d="M183.8,68.8c-1.7,0-3-.5-4-1.5-1-1-1.5-2.5-1.5-4.3s.5-3.3,1.4-4.4c.9-1.1,2.1-1.6,3.7-1.6s2.6.5,3.4,1.4c.8.9,1.3,2.2,1.3,3.7v1.1h-7.9c0,1.3.4,2.4,1,3.1.6.7,1.6,1,2.7,1s2.5-.3,3.7-.8v1.5c-.6.3-1.2.5-1.7.6-.5.1-1.2.2-2,.2ZM183.3,58.4c-.9,0-1.7.3-2.2.9-.5.6-.9,1.4-1,2.5h6c0-1.1-.2-1.9-.7-2.5-.5-.6-1.2-.9-2.1-.9ZM182,55.3c.3-.4.7-1,1.1-1.6.4-.6.7-1.1.9-1.6h2.1v.2c-.3.5-.8,1-1.4,1.7-.6.7-1.1,1.2-1.6,1.5h-1.2v-.3Z"/>
    <path class="st0" d="M194.6,67.3c.3,0,.6,0,.9,0,.3,0,.5,0,.7-.1v1.3c-.2,0-.5.2-.8.2-.4,0-.7,0-1,0-2.2,0-3.3-1.2-3.3-3.5v-6.8h-1.6v-.8l1.6-.7.7-2.4h1v2.7h3.3v1.3h-3.3v6.7c0,.7.2,1.2.5,1.6s.8.6,1.3.6Z"/>
    <path class="st0" d="M198.3,54c0-.4,0-.7.3-.9.2-.2.4-.3.7-.3s.5,0,.7.3c.2.2.3.5.3.9s-.1.7-.3.9c-.2.2-.4.3-.7.3s-.5,0-.7-.3c-.2-.2-.3-.5-.3-.9ZM200.2,68.6h-1.7v-11.4h1.7v11.4Z"/>
    <path class="st0" d="M208,68.8c-1.5,0-2.6-.5-3.5-1.6-.8-1-1.2-2.5-1.2-4.3s.4-3.3,1.3-4.4c.8-1.1,2-1.6,3.5-1.6s2.8.6,3.6,1.8h0l.3-1.6h1.4v16.6h-1.7v-4.9c0-.7,0-1.3.1-1.8h-.1c-.8,1.2-2,1.7-3.6,1.7ZM208.2,67.3c1.2,0,2-.3,2.5-.9.5-.6.8-1.7.8-3.1v-.4c0-1.6-.3-2.8-.8-3.5-.5-.7-1.4-1.1-2.6-1.1s-1.8.4-2.3,1.2c-.5.8-.8,1.9-.8,3.3s.3,2.5.8,3.3c.5.8,1.3,1.1,2.4,1.1Z"/>
    <path class="st0" d="M218.6,57.1v7.4c0,.9.2,1.6.6,2.1.4.5,1.1.7,2,.7s2.1-.3,2.6-1,.8-1.7.8-3.2v-6h1.7v11.4h-1.4l-.3-1.5h0c-.4.6-.8,1-1.5,1.3-.6.3-1.3.4-2.2.4-1.4,0-2.4-.3-3.1-1-.7-.7-1-1.7-1-3.2v-7.5h1.8Z"/>
    <path class="st0" d="M235,68.8c-1.7,0-3-.5-4-1.5-1-1-1.5-2.5-1.5-4.3s.5-3.3,1.4-4.4c.9-1.1,2.1-1.6,3.7-1.6s2.6.5,3.4,1.4c.8.9,1.3,2.2,1.3,3.7v1.1h-7.9c0,1.3.4,2.4,1,3.1.6.7,1.6,1,2.7,1s2.5-.3,3.7-.8v1.5c-.6.3-1.2.5-1.7.6-.5.1-1.2.2-2,.2ZM234.5,58.4c-.9,0-1.7.3-2.2.9-.5.6-.9,1.4-1,2.5h6c0-1.1-.2-1.9-.7-2.5-.5-.6-1.2-.9-2.1-.9Z"/>
    <path class="st0" d="M245.8,67.3c.3,0,.6,0,.9,0,.3,0,.5,0,.7-.1v1.3c-.2,0-.5.2-.8.2-.4,0-.7,0-1,0-2.2,0-3.3-1.2-3.3-3.5v-6.8h-1.6v-.8l1.6-.7.7-2.4h1v2.7h3.3v1.3h-3.3v6.7c0,.7.2,1.2.5,1.6s.8.6,1.3.6Z"/>
    <path class="st0" d="M256.7,68.6l-.3-1.6h0c-.6.7-1.1,1.2-1.7,1.5-.6.3-1.3.4-2.1.4s-2-.3-2.7-.9c-.6-.6-1-1.4-1-2.5,0-2.3,1.8-3.5,5.5-3.6h1.9v-.8c0-.9-.2-1.6-.6-2-.4-.4-1-.6-1.9-.6s-2,.3-3.2.9l-.5-1.3c.6-.3,1.2-.5,1.9-.7s1.3-.3,2-.3c1.4,0,2.4.3,3,.9.7.6,1,1.6,1,2.9v7.8h-1.3ZM252.8,67.3c1.1,0,1.9-.3,2.5-.9s.9-1.4.9-2.5v-1h-1.7c-1.4.1-2.4.3-3,.7-.6.4-.9,1-.9,1.8s.2,1.1.6,1.4.9.5,1.6.5Z"/>
    <path class="st0" d="M270.9,57.1v1.1l-2.1.3c.2.2.4.6.5,1,.2.4.2.8.2,1.3,0,1.1-.4,2-1.1,2.7-.8.7-1.8,1-3.2,1s-.7,0-1,0c-.7.4-1.1.9-1.1,1.5s.1.5.4.7c.3.1.7.2,1.3.2h2c1.2,0,2.2.3,2.9.8s1,1.3,1,2.3-.5,2.2-1.5,2.9-2.5,1-4.4,1-2.7-.3-3.5-.8-1.2-1.3-1.2-2.4.2-1.3.7-1.8c.4-.5,1.1-.9,1.9-1-.3-.1-.5-.3-.7-.6s-.3-.6-.3-1,.1-.8.3-1.1.6-.6,1.1-.9c-.6-.2-1.1-.7-1.4-1.2s-.6-1.3-.6-2c0-1.3.4-2.2,1.1-2.9s1.8-1,3.2-1,1.1,0,1.6.2h4ZM261.8,70.5c0,.6.3,1.1.8,1.4.5.3,1.3.5,2.2.5,1.5,0,2.5-.2,3.2-.7s1-1,1-1.8-.2-1-.6-1.3c-.4-.2-1.1-.4-2.2-.4h-2.1c-.8,0-1.4.2-1.8.6s-.7.9-.7,1.6ZM262.8,60.8c0,.8.2,1.4.7,1.8s1.1.6,1.9.6c1.7,0,2.5-.8,2.5-2.5s-.9-2.6-2.6-2.6-1.4.2-1.9.7c-.4.4-.7,1.1-.7,2Z"/>
    <path class="st0" d="M278.1,68.8c-1.7,0-3-.5-4-1.5-1-1-1.5-2.5-1.5-4.3s.5-3.3,1.4-4.4c.9-1.1,2.1-1.6,3.7-1.6s2.6.5,3.4,1.4c.8.9,1.3,2.2,1.3,3.7v1.1h-7.9c0,1.3.4,2.4,1,3.1.6.7,1.6,1,2.7,1s2.5-.3,3.7-.8v1.5c-.6.3-1.2.5-1.7.6-.5.1-1.2.2-2,.2ZM277.7,58.4c-.9,0-1.7.3-2.2.9-.5.6-.9,1.4-1,2.5h6c0-1.1-.2-1.9-.7-2.5-.5-.6-1.2-.9-2.1-.9Z"/>
  </g>
  <path fill="currentColor" d="M60.1,2.8c-1.4-1.1-3.4-1.1-5.8,0-2.2,1-4.4,2.8-6.2,5.2-.7.9-1.4,1.9-1.9,2.8l-14,1.7c-1.1.1-2.2.7-2.8,1.6L2.6,48.3c-.8,1.6-.6,3.2.8,4.4l21.6,16.9c1.7,1.3,3.7,1.5,5.1-.4l26.9-34.4c.4-.8.5-1.9.3-2.7l-1.7-14c.7-.7,1.5-1.5,2.2-2.3,1.9-2.3,3.2-4.9,3.6-7.2.5-2.5,0-4.5-1.3-5.7ZM45.9,17.2c1.5.2,2.8,1.2,3.4,2.6-1.1.3-2,.2-2.6-.3-.6-.4-.8-1.2-.9-2.3ZM48.8,34.3c-1,.5-1.9,1-2.8,1.6-5.2,3.4-10,7.5-14.2,12.1l-3.1,3.5-2,2.3c-.5.6-1.1,1-1.8,1.3-1.1.4-3,.9-4.2.7-.4,0-.7-.3-.7-.8l-.2-2.2c-.4-4.2-1.6-8.3-3.5-12.1,0-.2-.1-.3,0-.5s.2-.3.3-.4c1.4-.6,3.7-1.2,5.2-.9.7.2,1.2.7,1.6,1.3.3.5,1.2,2.2,1.4,2.7l1.2,3.8,1.8-1.5,2.8-2.4c1-.8,2-1.7,3-2.4,1.8-1.3,3.7-2.6,5.7-3.6,1.8-.9,3.5-1.7,5.4-2.3.5-.2.9-.2,1.4-.3.9-.2,1.8-.2,2.7-.2,0,0,.1,0,.1,0,0,0,0,.1,0,.1ZM49.7,21.5c0,2.4-2,4.3-4.4,4.3-2.4,0-4.3-2-4.3-4.4,0-2,1.4-3.6,3.2-4.1,0,1.5.5,2.7,1.5,3.5.7.6,1.6.8,2.5.8s.9,0,1.4-.2c0,0,0,0,0,0ZM59.7,8.1c-.4,2.1-1.6,4.4-3.3,6.5-.4.4-.7.9-1.1,1.3l-.3-2.7c-.2-1.7-2.1-3.2-3.9-3l-2.8.3c.3-.5.7-1,1.1-1.5,1.7-2.1,3.7-3.8,5.6-4.7.9-.4,1.8-.7,2.5-.7s1.1.2,1.5.5c.8.7,1.1,2.1.7,4Z"/>
</svg>