<?xml version="1.0" encoding="UTF-8"?>
<svg id="Logo_DE" xmlns="http://www.w3.org/2000/svg" version="1.1" viewBox="0 0 275.1 76.5" style="display:block;height:100%;width:auto">
  <!-- Generator: Adobe Illustrator 30.2.1, SVG Export Plug-In . SVG Version: 2.1.1 Build 1)  -->
  <defs>
    <style>
      .st0 {
        fill: #1d1d1b;
      }
    </style>
  </defs>
  <g>
    <path d="M76.9,45.5c-2.2,0-3.9-.8-5.1-2.5-1.2-1.7-1.9-4-1.9-7s.6-5.4,1.9-7.1c1.3-1.7,3-2.5,5.2-2.5s4.1.9,5.3,2.7h.2c-.3-1.4-.4-2.6-.4-3.7v-5.9h5v25.7h-3.9l-1-2.4h-.2c-1.1,1.8-2.9,2.7-5.2,2.7ZM78.7,41.5c1.3,0,2.2-.4,2.8-1.1.6-.7.9-2,1-3.8v-.5c0-2-.3-3.4-.9-4.3-.6-.9-1.6-1.3-3-1.3s-2,.5-2.6,1.4c-.6,1-.9,2.3-.9,4.2s.3,3.2.9,4.1c.6.9,1.5,1.4,2.7,1.4Z"/>
    <path d="M100.8,45.5c-3,0-5.3-.8-7-2.5s-2.5-4-2.5-7,.8-5.5,2.3-7.2c1.5-1.7,3.7-2.5,6.4-2.5s4.6.7,6.1,2.2c1.5,1.5,2.2,3.5,2.2,6.2v2.4h-11.9c0,1.4.5,2.5,1.3,3.3.8.8,1.9,1.2,3.3,1.2s2.2-.1,3.2-.3,2-.6,3.1-1.1v3.9c-.9.4-1.8.8-2.8,1-1,.2-2.2.3-3.7.3ZM100.1,30c-1.1,0-1.9.3-2.5,1s-1,1.6-1,2.9h7.1c0-1.2-.3-2.2-1-2.9s-1.5-1-2.5-1Z"/>
    <path d="M119.9,45.5c-5.7,0-8.6-3.2-8.6-9.5s.8-5.5,2.3-7.2,3.8-2.5,6.7-2.5,4,.4,5.7,1.3l-1.5,3.9c-.8-.3-1.5-.6-2.2-.8-.7-.2-1.4-.3-2-.3-2.6,0-3.9,1.9-3.9,5.6s1.3,5.4,3.9,5.4,1.9-.1,2.7-.4,1.7-.7,2.5-1.2v4.3c-.8.5-1.6.9-2.5,1.1-.8.2-1.9.3-3.1.3Z"/>
    <path d="M134.8,45.2h-5v-25.7h5v25.7Z"/>
    <path d="M151.8,45.2l-1-2.5h-.1c-.8,1.1-1.7,1.8-2.6,2.2s-2.1.6-3.5.6-3.2-.5-4.2-1.5c-1-1-1.5-2.5-1.5-4.3s.7-3.4,2.1-4.3c1.4-.9,3.4-1.4,6.2-1.5h3.2v-.9c0-1.9-1-2.8-2.9-2.8s-3.2.4-5.2,1.3l-1.7-3.4c2.1-1.1,4.5-1.7,7.1-1.7s4.4.5,5.7,1.6c1.3,1.1,2,2.7,2,4.9v12.3h-3.5ZM150.3,36.6h-1.9c-1.5.1-2.6.4-3.3.9-.7.5-1.1,1.2-1.1,2.2,0,1.4.8,2.1,2.4,2.1s2.1-.3,2.8-1c.7-.7,1-1.6,1-2.7v-1.5Z"/>
    <path d="M170.8,26.4c.7,0,1.2,0,1.7.1l-.4,4.7c-.4-.1-.9-.2-1.5-.2-1.6,0-2.9.4-3.8,1.2s-1.3,2-1.3,3.5v9.4h-5v-18.5h3.8l.7,3.1h.2c.6-1,1.3-1.9,2.3-2.5,1-.6,2-.9,3.2-.9Z"/>
    <path d="M175.6,22c0-1.6.9-2.5,2.7-2.5s2.7.8,2.7,2.5-.2,1.4-.7,1.8c-.5.4-1.1.7-2.1.7-1.8,0-2.7-.8-2.7-2.5ZM180.9,45.2h-5v-18.5h5v18.5Z"/>
    <path d="M203.2,45.2h-5v-10.8c0-1.3-.2-2.3-.7-3s-1.2-1-2.3-1-2.4.5-3.1,1.4c-.6.9-.9,2.5-.9,4.7v8.7h-5v-18.5h3.8l.7,2.4h.3c.6-.9,1.3-1.6,2.3-2,1-.5,2.1-.7,3.4-.7,2.1,0,3.8.6,4.9,1.7,1.1,1.2,1.7,2.8,1.7,5v12Z"/>
    <path d="M225.1,35.9c0,3-.8,5.4-2.4,7-1.6,1.7-3.8,2.5-6.6,2.5s-3.3-.4-4.7-1.2c-1.4-.8-2.4-1.9-3.1-3.3-.7-1.5-1.1-3.1-1.1-5.1,0-3,.8-5.4,2.4-7s3.8-2.5,6.6-2.5,3.3.4,4.7,1.2c1.4.8,2.4,1.9,3.1,3.3.7,1.4,1.1,3.1,1.1,5.1ZM212.4,35.9c0,1.8.3,3.2.9,4.1.6.9,1.6,1.4,2.9,1.4s2.3-.5,2.9-1.4.9-2.3.9-4.2-.3-3.2-.9-4.1c-.6-.9-1.6-1.4-2.9-1.4s-2.3.5-2.9,1.4c-.6.9-.9,2.3-.9,4.1Z"/>
    <path d="M228.6,42.8c0-.9.2-1.6.7-2.1.5-.5,1.2-.7,2.2-.7s1.6.2,2.1.7c.5.5.8,1.2.8,2.1s-.3,1.6-.8,2.1c-.5.5-1.2.8-2.1.8s-1.6-.2-2.1-.7-.8-1.2-.8-2.1Z"/>
    <path d="M246.4,45.5c-5.7,0-8.6-3.2-8.6-9.5s.8-5.5,2.3-7.2,3.8-2.5,6.7-2.5,4,.4,5.7,1.3l-1.5,3.9c-.8-.3-1.5-.6-2.2-.8-.7-.2-1.4-.3-2-.3-2.6,0-3.9,1.9-3.9,5.6s1.3,5.4,3.9,5.4,1.9-.1,2.7-.4,1.7-.7,2.5-1.2v4.3c-.8.5-1.6.9-2.5,1.1-.8.2-1.9.3-3.1.3Z"/>
    <path d="M273.3,45.2h-5v-10.8c0-2.7-1-4-3-4s-2.4.5-3.1,1.4c-.6,1-.9,2.5-.9,4.7v8.7h-5v-25.7h5v5.2c0,.4,0,1.4-.1,2.9v1.5c-.1,0,.1,0,.1,0,1.1-1.8,2.9-2.7,5.3-2.7s3.8.6,4.9,1.7c1.1,1.2,1.7,2.8,1.7,5v12Z"/>
  </g>
  <g>
    <path class="st0" d="M81.9,60.8c0,2.5-.7,4.4-2.1,5.8-1.4,1.3-3.3,2-5.9,2h-4.2v-15.3h4.7c2.4,0,4.2.7,5.5,2s2,3.2,2,5.5ZM80.1,60.8c0-2-.5-3.5-1.5-4.5-1-1-2.5-1.5-4.5-1.5h-2.6v12.2h2.2c2.1,0,3.7-.5,4.8-1.6,1.1-1,1.6-2.6,1.6-4.6Z"/>
    <path class="st0" d="M89.9,68.8c-1.7,0-3-.5-4-1.5-1-1-1.5-2.5-1.5-4.3s.5-3.3,1.4-4.4c.9-1.1,2.1-1.6,3.7-1.6s2.6.5,3.4,1.4c.8.9,1.3,2.2,1.3,3.7v1.1h-7.9c0,1.3.4,2.4,1,3.1.6.7,1.6,1,2.7,1s2.5-.3,3.7-.8v1.5c-.6.3-1.2.5-1.7.6-.5.1-1.2.2-2,.2ZM89.5,58.4c-.9,0-1.7.3-2.2.9-.5.6-.9,1.4-1,2.5h6c0-1.1-.2-1.9-.7-2.5-.5-.6-1.2-.9-2.1-.9Z"/>
    <path class="st0" d="M96.9,54c0-.4,0-.7.3-.9.2-.2.4-.3.7-.3s.5,0,.7.3c.2.2.3.5.3.9s-.1.7-.3.9c-.2.2-.4.3-.7.3s-.5,0-.7-.3c-.2-.2-.3-.5-.3-.9ZM98.8,68.6h-1.7v-11.4h1.7v11.4Z"/>
    <path class="st0" d="M110.3,68.6v-7.4c0-.9-.2-1.6-.6-2.1-.4-.5-1.1-.7-2-.7s-2.1.3-2.6,1c-.6.6-.8,1.7-.8,3.2v6h-1.7v-11.4h1.4l.3,1.6h0c.4-.6.9-1,1.5-1.3s1.4-.5,2.1-.5c1.4,0,2.4.3,3.1,1,.7.7,1,1.7,1,3.2v7.5h-1.7Z"/>
    <path class="st0" d="M130,68.6h-8.5v-15.3h8.5v1.6h-6.7v4.9h6.3v1.6h-6.3v5.6h6.7v1.6Z"/>
    <path class="st0" d="M136.8,67.3c.3,0,.6,0,.9,0,.3,0,.5,0,.7-.1v1.3c-.2,0-.5.2-.8.2-.4,0-.7,0-1,0-2.2,0-3.3-1.2-3.3-3.5v-6.8h-1.6v-.8l1.6-.7.7-2.4h1v2.7h3.3v1.3h-3.3v6.7c0,.7.2,1.2.5,1.6s.8.6,1.3.6Z"/>
    <path class="st0" d="M140.5,54c0-.4,0-.7.3-.9.2-.2.4-.3.7-.3s.5,0,.7.3c.2.2.3.5.3.9s-.1.7-.3.9c-.2.2-.4.3-.7.3s-.5,0-.7-.3c-.2-.2-.3-.5-.3-.9ZM142.4,68.6h-1.7v-11.4h1.7v11.4Z"/>
    <path class="st0" d="M147.8,62.7c.3-.4.8-1,1.4-1.7l3.7-3.9h2.1l-4.6,4.9,5,6.6h-2.1l-4-5.4-1.3,1.1v4.3h-1.7v-16.3h1.7v8.6c0,.4,0,1,0,1.8h0Z"/>
    <path class="st0" d="M162.1,68.8c-1.7,0-3-.5-4-1.5-1-1-1.5-2.5-1.5-4.3s.5-3.3,1.4-4.4c.9-1.1,2.1-1.6,3.7-1.6s2.6.5,3.4,1.4c.8.9,1.3,2.2,1.3,3.7v1.1h-7.9c0,1.3.4,2.4,1,3.1.6.7,1.6,1,2.7,1s2.5-.3,3.7-.8v1.5c-.6.3-1.2.5-1.7.6-.5.1-1.2.2-2,.2ZM161.6,58.4c-.9,0-1.7.3-2.2.9-.5.6-.9,1.4-1,2.5h6c0-1.1-.2-1.9-.7-2.5-.5-.6-1.2-.9-2.1-.9Z"/>
    <path class="st0" d="M173,67.3c.3,0,.6,0,.9,0,.3,0,.5,0,.7-.1v1.3c-.2,0-.5.2-.8.2-.4,0-.7,0-1,0-2.2,0-3.3-1.2-3.3-3.5v-6.8h-1.6v-.8l1.6-.7.7-2.4h1v2.7h3.3v1.3h-3.3v6.7c0,.7.2,1.2.5,1.6s.8.6,1.3.6Z"/>
    <path class="st0" d="M180.5,67.3c.3,0,.6,0,.9,0,.3,0,.5,0,.7-.1v1.3c-.2,0-.5.2-.8.2-.4,0-.7,0-1,0-2.2,0-3.3-1.2-3.3-3.5v-6.8h-1.6v-.8l1.6-.7.7-2.4h1v2.7h3.3v1.3h-3.3v6.7c0,.7.2,1.2.5,1.6s.8.6,1.3.6Z"/>
    <path class="st0" d="M189.2,68.8c-1.7,0-3-.5-4-1.5-1-1-1.5-2.5-1.5-4.3s.5-3.3,1.4-4.4c.9-1.1,2.1-1.6,3.7-1.6s2.6.5,3.4,1.4c.8.9,1.3,2.2,1.3,3.7v1.1h-7.9c0,1.3.4,2.4,1,3.1.6.7,1.6,1,2.7,1s2.5-.3,3.7-.8v1.5c-.6.3-1.2.5-1.7.6-.5.1-1.2.2-2,.2ZM188.7,58.4c-.9,0-1.7.3-2.2.9-.5.6-.9,1.4-1,2.5h6c0-1.1-.2-1.9-.7-2.5-.5-.6-1.2-.9-2.1-.9Z"/>
    <path class="st0" d="M204.2,68.6v-7.4c0-.9-.2-1.6-.6-2.1-.4-.5-1.1-.7-2-.7s-2.1.3-2.6,1c-.6.6-.8,1.7-.8,3.2v6h-1.7v-11.4h1.4l.3,1.6h0c.4-.6.9-1,1.5-1.3s1.4-.5,2.1-.5c1.4,0,2.4.3,3.1,1,.7.7,1,1.7,1,3.2v7.5h-1.7Z"/>
    <path class="st0" d="M217.3,68.6v-7.4c0-.9-.2-1.6-.6-2.1-.4-.5-1.1-.7-2-.7s-2.1.3-2.6,1c-.6.7-.8,1.7-.8,3.2v6h-1.7v-16.3h1.7v4.9c0,.6,0,1.1,0,1.5h.1c.3-.6.8-1,1.5-1.3.6-.3,1.3-.5,2.2-.5,1.4,0,2.4.3,3.1,1,.7.7,1,1.7,1,3.2v7.5h-1.7Z"/>
    <path class="st0" d="M227.5,68.8c-1.7,0-3-.5-4-1.5-1-1-1.5-2.5-1.5-4.3s.5-3.3,1.4-4.4c.9-1.1,2.1-1.6,3.7-1.6s2.6.5,3.4,1.4c.8.9,1.3,2.2,1.3,3.7v1.1h-7.9c0,1.3.4,2.4,1,3.1.6.7,1.6,1,2.7,1s2.5-.3,3.7-.8v1.5c-.6.3-1.2.5-1.7.6-.5.1-1.2.2-2,.2ZM227,58.4c-.9,0-1.7.3-2.2.9-.5.6-.9,1.4-1,2.5h6c0-1.1-.2-1.9-.7-2.5-.5-.6-1.2-.9-2.1-.9Z"/>
    <path class="st0" d="M236.4,68.6h-1.7v-16.3h1.7v16.3Z"/>
    <path class="st0" d="M245.2,58.5h-2.9v10.1h-1.7v-10.1h-2v-.8l2-.6v-.6c0-2.8,1.2-4.2,3.7-4.2s1.3.1,2.1.4l-.4,1.4c-.7-.2-1.2-.3-1.7-.3s-1.1.2-1.5.7c-.3.4-.5,1.1-.5,2.1v.7h2.9v1.3Z"/>
    <path class="st0" d="M252.1,68.8c-1.7,0-3-.5-4-1.5-1-1-1.5-2.5-1.5-4.3s.5-3.3,1.4-4.4c.9-1.1,2.1-1.6,3.7-1.6s2.6.5,3.4,1.4c.8.9,1.3,2.2,1.3,3.7v1.1h-7.9c0,1.3.4,2.4,1,3.1.6.7,1.6,1,2.7,1s2.5-.3,3.7-.8v1.5c-.6.3-1.2.5-1.7.6-.5.1-1.2.2-2,.2ZM251.7,58.4c-.9,0-1.7.3-2.2.9-.5.6-.9,1.4-1,2.5h6c0-1.1-.2-1.9-.7-2.5-.5-.6-1.2-.9-2.1-.9Z"/>
    <path class="st0" d="M264.5,56.9c.5,0,1,0,1.4.1l-.2,1.6c-.5-.1-.9-.2-1.3-.2-.9,0-1.7.4-2.4,1.1-.7.8-1,1.7-1,2.8v6.1h-1.7v-11.4h1.4l.2,2.1h0c.4-.7.9-1.3,1.5-1.7.6-.4,1.3-.6,2-.6Z"/>
  </g>
  <path fill="currentColor" d="M60.1,2.8c-1.4-1.1-3.4-1.1-5.8,0-2.2,1-4.4,2.8-6.2,5.2-.7.9-1.4,1.9-1.9,2.8l-14,1.7c-1.1.1-2.2.7-2.8,1.6L2.6,48.3c-.8,1.6-.6,3.2.8,4.4l21.6,16.9c1.7,1.3,3.7,1.5,5.1-.4l26.9-34.4c.4-.8.5-1.9.3-2.7l-1.7-14c.8-.7,1.5-1.5,2.2-2.3,1.9-2.3,3.2-4.9,3.6-7.2.5-2.5,0-4.5-1.3-5.7ZM49.4,19.8c-1.1.3-2,.2-2.6-.3-.6-.4-.9-1.3-.9-2.3,1.6.2,2.9,1.2,3.5,2.6ZM48.8,34.3c-1,.5-1.9,1-2.8,1.6-5.2,3.4-10,7.5-14.2,12.1l-3.1,3.5-2,2.3c-.5.6-1.1,1-1.8,1.3-1.1.4-3,.9-4.2.7-.4,0-.7-.3-.7-.8l-.2-2.2c-.4-4.2-1.6-8.3-3.5-12.1,0-.2-.1-.3,0-.5s.2-.3.3-.4c1.4-.6,3.7-1.2,5.2-.9.7.2,1.2.7,1.6,1.3.3.5,1.2,2.2,1.4,2.7l1.2,3.8,1.8-1.5,2.8-2.4c1-.8,2-1.7,3-2.4,1.8-1.3,3.7-2.6,5.7-3.6,1.8-.9,3.5-1.7,5.4-2.3.5-.2.9-.2,1.4-.3.9-.2,1.8-.2,2.7-.2,0,0,.1,0,.1,0,0,0,0,.1,0,.1ZM45.3,25.8c-2.4,0-4.3-2-4.3-4.4,0-2,1.3-3.6,3.2-4.1,0,1.5.6,2.7,1.5,3.5.7.6,1.6.8,2.5.8s.9,0,1.4-.2c0,0,0,0,0,0,0,2.4-2,4.3-4.4,4.3ZM59.7,8.1c-.4,2.1-1.6,4.4-3.3,6.5-.4.4-.7.9-1.1,1.3l-.3-2.7c-.2-1.7-2.1-3.2-3.9-3l-2.8.3c.3-.5.7-1,1.1-1.5,1.7-2.1,3.7-3.8,5.6-4.7.9-.4,1.8-.7,2.5-.7s1.1.2,1.5.5c.8.7,1.1,2.1.7,4Z"/>
</svg>