<?xml version="1.0" encoding="UTF-8"?>
<svg xmlns="http://www.w3.org/2000/svg" viewBox="0 0 1788 596" width="447" height="149">
  <g transform="translate(0.000000,596.000000) scale(0.100000,-0.100000)">
    <g fill="#90C665" stroke="none">
<path d="M4424 5006 c-76 -19 -220 -101 -297 -169 -67 -60 -136 -141 -191
-224 -36 -55 -70 -69 -196 -82 -489 -52 -593 -67 -639 -89 -52 -25 -117 -94
-216 -227 -49 -66 -105 -139 -124 -161 -20 -23 -52 -64 -71 -90 -19 -27 -56
-76 -82 -109 -26 -33 -102 -130 -167 -215 -204 -264 -363 -467 -441 -565 -41
-52 -90 -113 -108 -137 -17 -24 -65 -85 -105 -137 -203 -263 -203 -263 -184
-356 10 -49 42 -83 172 -185 55 -43 111 -88 124 -101 13 -12 47 -38 75 -57 28
-19 67 -49 86 -67 19 -18 94 -76 165 -130 72 -54 155 -119 185 -145 30 -25 67
-55 81 -66 62 -45 196 -150 214 -167 30 -28 94 -71 144 -97 55 -27 123 -24
169 9 33 23 132 140 252 297 41 54 102 131 135 171 33 41 69 89 80 107 30 48
115 156 123 156 4 0 16 15 27 33 10 17 37 55 59 83 23 28 75 95 116 148 41 54
91 116 111 139 20 23 61 76 91 117 73 97 130 172 187 241 25 31 66 85 91 120
25 35 72 95 106 134 76 88 83 101 90 172 9 84 -20 375 -61 614 -8 48 -15 112
-15 143 0 49 4 61 28 84 43 43 100 120 167 227 91 143 132 321 101 429 -37
125 -148 186 -282 152z m141 -108 c15 -12 34 -36 41 -54 15 -37 19 -150 5
-158 -5 -3 -14 -27 -21 -53 -26 -105 -148 -303 -186 -303 -7 0 -16 12 -19 28
-18 90 -37 129 -78 170 -52 51 -104 67 -189 57 -48 -6 -59 -4 -64 9 -9 24 98
139 203 218 139 104 247 134 308 86z m-557 -738 c45 -42 54 -75 23 -85 -51
-16 -121 40 -121 96 0 44 43 40 98 -11z m-202 -16 c16 -55 38 -94 68 -122 26
-24 116 -51 173 -52 46 0 52 -32 19 -98 -19 -37 -37 -57 -73 -77 -51 -29 -136
-42 -195 -31 -43 8 -113 66 -137 115 -25 48 -36 138 -21 176 17 46 61 105 89
120 42 24 64 15 77 -31z m204 -864 c0 -12 -12 -26 -30 -35 -17 -9 -72 -44
-121 -78 -50 -34 -100 -69 -112 -77 -168 -114 -472 -388 -561 -505 -16 -20
-62 -72 -104 -114 -41 -42 -87 -92 -101 -113 -56 -74 -118 -136 -160 -157 -50
-26 -213 -64 -236 -55 -28 11 -48 66 -61 169 -21 158 -72 381 -104 450 -76
164 -86 194 -67 217 22 28 135 58 219 58 71 0 80 -2 107 -27 36 -33 101 -161
130 -257 21 -68 36 -96 51 -96 9 0 112 83 276 220 104 87 224 172 324 229 30
18 62 36 70 41 27 17 174 83 225 103 73 27 153 45 208 46 40 1 47 -2 47 -19z"/>
<path d="M5806 4067 c-15 -11 -17 -36 -16 -220 0 -128 -3 -207 -9 -207 -6 0
-36 15 -68 34 -72 42 -121 56 -197 56 -143 0 -232 -61 -314 -214 -34 -63 -47
-122 -57 -256 -15 -209 69 -445 181 -507 55 -31 159 -63 203 -63 44 0 170 58
218 100 19 17 38 30 43 30 5 0 19 -15 31 -32 35 -52 48 -58 122 -58 119 0 107
-77 107 676 l0 654 -23 9 c-36 14 -202 12 -221 -2z m-97 -581 c69 -36 95 -126
89 -309 -4 -138 -21 -187 -80 -229 -28 -19 -45 -23 -110 -23 -76 0 -77 0 -118
40 -30 29 -46 57 -60 103 -28 90 -27 166 6 319 6 31 63 93 99 109 47 21 124
16 174 -10z"/>
<path d="M8333 4073 c-30 -21 -32 -73 -33 -680 0 -545 2 -621 15 -641 15 -20
24 -22 119 -22 66 0 106 4 114 12 9 9 12 169 12 659 0 589 -1 648 -17 660 -18
16 -190 25 -210 12z"/>
<path d="M10795 4071 c-69 -17 -100 -61 -98 -134 2 -50 31 -81 94 -102 41 -14
55 -15 86 -5 76 24 111 87 93 163 -10 44 -6 40 -45 60 -40 20 -93 27 -130 18z"/>
<path d="M14914 4066 c-18 -14 -19 -33 -22 -655 -2 -758 -18 -681 136 -681 53
0 104 5 112 10 13 8 16 58 20 317 5 290 6 310 27 348 27 51 52 73 100 91 89
31 174 8 210 -58 16 -29 19 -70 23 -356 6 -383 -6 -352 140 -352 82 0 99 3
114 19 15 17 17 51 14 377 l-3 359 -26 56 c-34 73 -85 128 -146 159 -43 22
-60 25 -163 25 -102 0 -120 -3 -162 -24 -26 -14 -58 -35 -70 -48 -24 -26 -53
-30 -62 -8 -3 8 -3 101 -1 207 3 108 0 199 -5 208 -13 21 -208 26 -236 6z"/>
<path d="M6600 3716 c-123 -27 -216 -104 -277 -233 -42 -88 -57 -187 -50 -329
10 -176 86 -316 215 -391 44 -26 214 -73 265 -73 70 0 256 34 305 56 l53 24
-3 77 c-4 90 -15 103 -75 86 -234 -68 -341 -63 -424 20 -51 51 -77 129 -54
164 l15 23 256 -6 c280 -5 319 0 330 42 3 13 4 75 2 136 -4 100 -8 121 -36
180 -35 76 -97 148 -156 183 -88 51 -242 68 -366 41z m232 -206 c64 -43 100
-139 63 -170 -20 -17 -133 -24 -237 -16 -113 10 -115 12 -99 78 17 66 31 86
79 115 57 35 135 32 194 -7z"/>
<path d="M7645 3720 c-127 -23 -240 -117 -293 -244 -48 -113 -67 -304 -41
-414 25 -105 83 -220 134 -265 68 -60 204 -101 319 -98 93 2 214 31 256 61 29
21 30 24 30 99 0 48 -5 84 -13 95 -13 18 -16 18 -78 -5 -52 -19 -84 -24 -166
-24 -94 0 -103 2 -128 25 -85 79 -121 245 -84 380 37 133 90 180 202 180 35 0
84 -7 107 -15 58 -21 103 -19 124 4 20 22 38 80 40 131 1 30 -4 37 -38 56 -69
39 -252 56 -371 34z"/>
<path d="M9050 3716 c-94 -20 -159 -46 -171 -68 -8 -15 -4 -33 20 -84 16 -35
38 -67 47 -71 10 -4 47 4 83 17 136 49 276 36 313 -28 20 -35 31 -113 18 -132
-7 -11 -54 -19 -182 -32 -167 -17 -174 -19 -258 -60 -81 -41 -86 -46 -115
-103 -38 -76 -45 -168 -20 -257 22 -80 56 -121 134 -165 59 -33 71 -37 140
-36 119 1 256 48 284 99 14 25 49 15 87 -26 36 -39 39 -40 102 -40 106 0 100
-24 96 396 -4 400 -5 405 -75 490 -25 31 -57 55 -102 76 -62 28 -75 31 -201
34 -88 2 -157 -1 -200 -10z m307 -568 c15 -20 13 -98 -3 -137 -42 -100 -150
-147 -247 -106 -56 23 -67 40 -67 104 0 52 3 60 34 90 18 18 53 38 77 46 57
18 193 19 206 3z"/>
<path d="M10348 3719 c-51 -12 -108 -49 -150 -98 -19 -23 -42 -41 -50 -41 -15
0 -38 39 -38 64 0 7 -11 22 -24 35 -19 18 -36 22 -90 23 -109 2 -101 40 -101
-486 0 -369 3 -456 14 -469 11 -14 32 -17 110 -17 151 0 141 -22 141 298 0
160 4 283 11 306 11 40 62 95 113 123 16 8 64 18 108 20 43 3 85 11 93 17 9 7
19 46 26 110 11 92 10 100 -7 113 -20 14 -99 16 -156 2z"/>
<path d="M11685 3721 c-58 -15 -122 -49 -157 -85 -33 -34 -37 -35 -52 -21 -9
9 -16 22 -16 30 0 7 -14 25 -31 39 -26 22 -40 26 -93 26 -106 0 -97 42 -97
-490 1 -423 3 -466 18 -477 11 -8 52 -13 113 -13 62 0 102 5 113 13 14 10 16
43 18 257 2 312 10 382 48 435 36 50 118 87 173 80 53 -7 101 -39 124 -82 17
-35 19 -64 22 -358 3 -283 5 -321 19 -332 23 -18 203 -17 227 0 17 12 18 37
15 384 l-4 370 -35 69 c-29 56 -46 76 -90 106 -30 20 -74 42 -97 47 -47 12
-172 13 -218 2z"/>
<path d="M12669 3721 c-63 -12 -114 -40 -183 -103 -47 -42 -68 -71 -99 -137
-52 -111 -65 -199 -48 -333 14 -118 41 -193 93 -269 68 -99 133 -138 288 -174
72 -17 80 -17 159 -1 177 36 273 101 331 224 52 109 61 153 61 306 l0 138 -40
84 c-64 134 -120 191 -239 245 -38 18 -70 23 -162 25 -63 2 -136 -1 -161 -5z
m233 -233 c65 -37 90 -98 96 -235 5 -118 -4 -176 -39 -250 -29 -60 -71 -83
-151 -83 -56 0 -71 4 -106 30 -25 18 -53 51 -69 82 -26 50 -27 60 -28 193 l0
140 34 54 c63 97 165 124 263 69z"/>
<path d="M14269 3721 c-67 -13 -142 -54 -203 -114 -91 -89 -125 -178 -133
-353 -7 -153 7 -233 57 -340 47 -97 89 -138 186 -178 106 -43 207 -54 306 -33
45 9 105 28 135 42 58 26 53 14 58 148 2 83 -8 88 -108 54 -92 -31 -186 -36
-240 -13 -39 16 -84 66 -108 121 -41 94 -32 277 17 363 48 81 166 114 276 76
26 -8 64 -14 85 -12 35 3 40 7 62 53 13 28 24 70 25 94 l1 44 -60 25 c-50 20
-80 25 -185 28 -69 1 -146 -1 -171 -5z"/>
<path d="M10723 3695 c-18 -13 -17 13 -15 -502 2 -377 4 -434 18 -447 22 -23
190 -23 222 0 l23 16 -2 453 c-1 360 -4 457 -14 472 -11 15 -28 18 -116 18
-56 0 -108 -5 -116 -10z"/>
<path d="M13525 2961 c-49 -23 -75 -65 -75 -124 0 -76 69 -137 155 -137 76 0
145 63 145 133 0 113 -115 179 -225 128z"/>
</g>
    <g fill="#6B6566" stroke="none">
<path d="M9153 2349 l-23 -8 0 -405 c0 -398 0 -405 21 -419 21 -16 55 -12 66
6 4 7 6 47 4 90 -3 104 3 129 41 152 l31 18 26 -30 c14 -16 51 -63 81 -103 87
-115 102 -131 128 -141 54 -21 83 19 41 57 -12 10 -59 69 -105 131 -47 62 -89
115 -94 118 -25 16 -3 51 89 145 55 55 102 107 104 115 3 7 -1 19 -9 25 -31
27 -74 -8 -251 -203 -84 -92 -82 -95 -85 194 -3 241 -4 252 -23 259 -11 4 -30
4 -42 -1z"/>
<path d="M12466 2344 c-14 -14 -16 -62 -14 -416 3 -392 3 -401 24 -414 17 -12
23 -12 39 0 17 12 19 29 19 192 1 166 3 182 24 221 27 52 67 74 147 81 77 6
120 -14 143 -66 13 -30 16 -74 17 -222 0 -102 4 -191 8 -197 5 -7 19 -13 31
-13 13 0 28 6 33 13 14 16 15 357 2 425 -27 138 -183 193 -332 118 -30 -16
-59 -26 -64 -23 -5 3 -9 68 -8 143 2 121 0 139 -17 156 -22 22 -32 23 -52 2z"/>
<path d="M13817 2348 c-15 -12 -17 -51 -17 -417 -1 -240 3 -408 8 -413 5 -5
22 -8 38 -6 l29 3 3 410 c2 377 1 411 -15 423 -9 6 -20 12 -23 12 -3 0 -14 -6
-23 -12z"/>
<path d="M14236 2345 c-84 -30 -124 -85 -135 -183 -6 -59 -5 -57 -81 -92 -20
-9 -25 -50 -8 -61 7 -5 28 -9 46 -9 18 0 35 -6 37 -12 3 -7 6 -116 7 -243 l3
-230 28 -3 c57 -7 58 -1 56 251 -1 186 1 231 12 238 8 5 38 8 68 7 42 0 57 3
68 18 31 43 2 74 -71 74 -28 0 -57 5 -64 12 -21 21 -14 84 12 115 22 25 31 28
88 28 73 1 88 7 88 40 0 47 -85 75 -154 50z"/>
<path d="M5163 2313 c-18 -7 -19 -788 -2 -799 7 -4 75 -6 153 -5 176 2 252 22
329 85 96 78 137 179 137 337 0 193 -99 329 -274 374 -55 14 -313 21 -343 8z
m359 -108 c74 -30 102 -54 136 -120 25 -46 27 -59 26 -165 0 -133 -16 -179
-81 -243 -57 -54 -130 -77 -251 -77 -63 0 -102 4 -110 12 -9 9 -12 89 -12 299
0 248 2 290 16 303 12 12 38 16 115 16 83 0 110 -4 161 -25z"/>
<path d="M6586 2305 c-20 -20 -21 -78 -2 -95 23 -19 59 -8 74 23 26 54 -31
112 -72 72z"/>
<path d="M7845 2307 c-3 -6 -4 -188 -3 -402 l3 -390 204 -3 c214 -3 231 0 231
42 0 42 -16 46 -180 46 -108 0 -160 4 -168 12 -8 8 -12 51 -12 128 0 77 4 120
12 128 8 8 57 12 154 12 151 0 174 7 174 49 0 36 -25 42 -176 46 -107 3 -149
7 -155 17 -14 21 -11 212 3 226 8 8 60 12 168 12 164 0 180 4 180 45 0 42 -14
45 -227 45 -154 0 -205 -3 -208 -13z"/>
<path d="M8866 2304 c-33 -32 -13 -104 29 -104 26 0 55 33 55 62 0 22 -34 58
-54 58 -8 0 -22 -7 -30 -16z"/>
<path d="M8487 2213 c-3 -4 -10 -26 -16 -48 -8 -32 -20 -46 -57 -68 -50 -30
-53 -48 -7 -58 54 -11 53 -7 53 -217 0 -225 6 -249 76 -289 78 -45 189 -23
182 35 -3 25 -7 27 -58 30 -65 3 -94 16 -109 49 -16 34 -15 365 1 381 7 7 40
12 79 12 47 0 70 4 79 15 23 28 -5 45 -74 45 -77 0 -94 12 -98 70 -2 37 -7 46
-25 48 -11 2 -23 0 -26 -5z"/>
<path d="M10392 2193 c-6 -16 -13 -38 -17 -50 -3 -12 -25 -33 -48 -45 -51 -28
-54 -49 -9 -60 18 -5 36 -16 39 -24 3 -8 6 -99 7 -202 1 -205 7 -230 68 -275
38 -28 138 -36 173 -13 51 34 25 76 -46 76 -101 0 -111 19 -114 241 -1 91 1
173 6 180 5 9 35 16 86 19 66 4 78 8 81 24 6 30 -14 40 -80 38 -77 -2 -91 6
-90 50 1 18 -1 41 -4 51 -8 27 -40 21 -52 -10z"/>
<path d="M10795 2183 c-24 -60 -30 -67 -69 -86 -46 -22 -44 -45 4 -61 l35 -11
5 -205 c4 -183 7 -209 25 -240 27 -46 76 -69 145 -69 56 0 81 11 92 41 12 30
-14 47 -77 50 -55 3 -61 5 -82 37 -22 32 -23 43 -23 207 0 127 3 175 13 181 6
4 46 10 87 13 63 4 75 8 78 24 6 27 -15 36 -84 36 -75 0 -92 12 -96 70 -4 61
-32 68 -53 13z"/>
<path d="M6591 2091 c-17 -17 -18 -37 -16 -287 0 -149 5 -275 9 -282 9 -15 48
-16 64 0 9 9 12 86 12 283 0 251 -1 273 -18 288 -23 21 -28 21 -51 -2z"/>
<path d="M15325 2101 c-43 -11 -86 -35 -114 -65 -36 -38 -59 -34 -63 10 -4 44
-29 65 -55 48 -16 -10 -18 -37 -20 -288 l-2 -276 24 -16 c18 -12 28 -13 44 -4
20 10 21 19 21 183 l0 172 33 50 c43 66 87 95 146 95 26 0 52 5 59 12 19 19
15 66 -7 78 -22 11 -23 11 -66 1z"/>
<path d="M6065 2074 c-111 -54 -170 -189 -145 -332 26 -151 124 -232 281 -232
121 0 212 45 193 95 -6 13 -14 16 -43 11 -80 -15 -195 -18 -231 -7 -74 22
-131 91 -110 131 10 19 21 20 200 20 221 0 213 -4 200 101 -13 107 -58 180
-134 215 -69 32 -144 31 -211 -2z m200 -88 c15 -10 36 -38 47 -62 31 -71 23
-75 -151 -72 -143 3 -146 3 -149 26 -5 35 36 92 82 114 50 23 131 20 171 -6z"/>
<path d="M6865 2090 c-3 -5 -7 -134 -7 -286 -1 -250 1 -278 16 -289 23 -17 55
-7 61 19 2 11 6 101 7 198 3 193 6 203 72 252 39 30 173 30 206 1 45 -40 51
-74 49 -270 -1 -101 2 -188 5 -194 9 -14 63 -14 71 0 4 6 6 106 6 222 -2 200
-3 214 -25 257 -55 108 -223 135 -333 54 -42 -32 -51 -30 -69 11 -14 34 -45
48 -59 25z"/>
<path d="M8864 2089 c-10 -17 -7 -560 4 -571 5 -5 22 -8 38 -6 l29 3 3 279 c2
197 -1 283 -9 292 -14 17 -55 18 -65 3z"/>
<path d="M9854 2076 c-172 -80 -214 -354 -76 -493 68 -67 219 -94 323 -58 56
20 69 32 69 65 0 35 -18 42 -66 25 -22 -8 -74 -14 -117 -15 -81 0 -120 12
-164 53 -23 21 -41 82 -28 95 3 4 95 9 203 12 l197 5 -1 70 c-1 75 -27 150
-67 194 -12 13 -44 34 -72 47 -66 31 -134 31 -201 0z m170 -80 c45 -19 78 -67
74 -108 l-3 -33 -130 -3 c-167 -4 -179 -1 -171 41 18 88 137 142 230 103z"/>
<path d="M11278 2085 c-125 -46 -197 -191 -170 -344 27 -150 125 -231 281
-231 66 0 152 20 177 41 19 16 17 56 -3 67 -11 6 -27 5 -49 -4 -44 -18 -182
-18 -225 0 -64 27 -114 101 -89 131 10 12 48 15 201 15 139 0 190 3 196 13 4
6 6 38 5 71 -4 66 -36 147 -76 189 -57 61 -164 83 -248 52z m176 -98 c34 -23
68 -95 55 -119 -9 -17 -22 -18 -157 -16 l-147 3 -3 27 c-4 34 36 89 81 112 39
20 135 16 171 -7z"/>
<path d="M11772 2088 c-14 -17 -13 -548 0 -565 6 -7 23 -13 39 -13 37 0 38 5
41 222 3 160 5 179 24 204 38 52 70 68 142 72 58 3 72 0 102 -20 53 -36 60
-68 58 -277 -2 -180 -2 -185 20 -199 20 -13 24 -13 43 4 20 18 20 27 17 229
-3 196 -5 213 -26 257 -30 60 -101 98 -185 98 -56 0 -134 -27 -157 -55 -20
-24 -36 -18 -59 20 -21 36 -41 44 -59 23z"/>
<path d="M13247 2068 c-73 -40 -111 -93 -134 -186 -14 -61 -15 -80 -4 -141 27
-151 124 -231 278 -231 71 0 165 23 183 45 6 8 10 24 8 37 -3 20 -8 23 -43 20
-170 -12 -209 -13 -239 -1 -66 26 -122 103 -96 134 10 12 46 15 201 15 221 0
215 -3 200 103 -11 76 -50 158 -88 185 -87 61 -177 68 -266 20z m187 -72 c40
-17 79 -75 74 -113 l-3 -28 -150 0 -150 0 -3 25 c-9 87 132 158 232 116z"/>
<path d="M14583 2082 c-87 -36 -139 -108 -164 -227 -27 -133 41 -269 158 -322
111 -48 298 -21 316 47 10 37 -7 45 -71 32 -32 -7 -90 -12 -128 -12 -60 0 -77
4 -116 29 -26 16 -51 39 -57 50 -10 17 -15 68 -8 73 1 1 92 4 202 7 l200 6 3
56 c3 65 -25 152 -65 200 -61 72 -178 98 -270 61z m161 -86 c45 -19 78 -67 74
-108 l-3 -33 -139 -3 c-152 -3 -172 3 -161 47 21 84 140 134 229 97z"/>
</g>
  </g>
</svg>
