<svg xmlns="http://www.w3.org/2000/svg" viewBox="0 0 63 72">
  <path fill="#1d1d1b" d="M60.1,2.8c-1.4-1.1-3.4-1.1-5.8,0-2.2,1-4.4,2.8-6.2,5.2-.7.9-1.4,1.9-1.9,2.8l-14,1.7c-1.1.1-2.2.7-2.8,1.6L2.6,48.3c-.8,1.6-.6,3.2.8,4.4l21.6,16.9c1.7,1.3,3.7,1.5,5.1-.4l26.9-34.4c.4-.8.5-1.9.3-2.7l-1.7-14c.8-.7,1.5-1.5,2.2-2.3,1.9-2.3,3.2-4.9,3.6-7.2.5-2.5,0-4.5-1.3-5.7ZM49.4,19.8c-1.1.3-2,.2-2.6-.3-.6-.4-.9-1.3-.9-2.3,1.6.2,2.9,1.2,3.5,2.6ZM48.8,34.3c-1,.5-1.9,1-2.8,1.6-5.2,3.4-10,7.5-14.2,12.1l-3.1,3.5-2,2.3c-.5.6-1.1,1-1.8,1.3-1.1.4-3,.9-4.2.7-.4,0-.7-.3-.7-.8l-.2-2.2c-.4-4.2-1.6-8.3-3.5-12.1,0-.2-.1-.3,0-.5s.2-.3.3-.4c1.4-.6,3.7-1.2,5.2-.9.7.2,1.2.7,1.6,1.3.3.5,1.2,2.2,1.4,2.7l1.2,3.8,1.8-1.5,2.8-2.4c1-.8,2-1.7,3-2.4,1.8-1.3,3.7-2.6,5.7-3.6,1.8-.9,3.5-1.7,5.4-2.3.5-.2.9-.2,1.4-.3.9-.2,1.8-.2,2.7-.2,0,0,.1,0,.1,0,0,0,0,.1,0,.1ZM45.3,25.8c-2.4,0-4.3-2-4.3-4.4,0-2,1.3-3.6,3.2-4.1,0,1.5.6,2.7,1.5,3.5.7.6,1.6.8,2.5.8s.9,0,1.4-.2c0,0,0,0,0,0,0,2.4-2,4.3-4.4,4.3ZM59.7,8.1c-.4,2.1-1.6,4.4-3.3,6.5-.4.4-.7.9-1.1,1.3l-.3-2.7c-.2-1.7-2.1-3.2-3.9-3l-2.8.3c.3-.5.7-1,1.1-1.5,1.7-2.1,3.7-3.8,5.6-4.7.9-.4,1.8-.7,2.5-.7s1.1.2,1.5.5c.8.7,1.1,2.1.7,4Z"/>
</svg>
