<?xml version="1.0" encoding="UTF-8"?><svg id="Ebene_1" xmlns="http://www.w3.org/2000/svg" viewBox="0 0 680.32 170.08"><defs><style>.cls-1{fill:none;}.cls-2{fill:#11533d;}.cls-3{fill:#a2c037;}</style></defs><rect class="cls-1" width="680.32" height="170.08"/><path class="cls-2" d="M15.38,49.39h14.27v59.92h27.62v11.21H15.38V49.39Z"/><path class="cls-2" d="M95.87,49.39h14.27V120.53h-14.27V49.39Z"/><path class="cls-2" d="M156.19,49.39h41.99v11.21h-27.72v17.53h25.38v11.21h-25.38v19.97h27.92v11.21h-42.19V49.39Z"/><path class="cls-2" d="M243.62,49.39h24.87c9.17,0,22.93,2.65,22.93,18.24,0,8.46-5.71,14.37-14.17,15.9v.2c9.68,.92,16.31,7.44,16.31,16.2,0,17.94-16.1,20.59-25.07,20.59h-24.87V49.39Zm14.27,28.74h5.81c6.01,0,13.45-1.32,13.45-8.66,0-8.25-7.24-8.87-13.76-8.87h-5.5v17.53Zm0,31.19h6.73c6.62,0,14.68-1.63,14.68-9.88,0-9.27-7.54-10.7-14.68-10.7h-6.73v20.59Z"/><path class="cls-2" d="M387.81,49.39h41.99v11.21h-27.72v17.53h25.37v11.21h-25.37v19.97h27.92v11.21h-42.19V49.39Z"/><path class="cls-2" d="M544.16,63.15c-5.5-2.55-12.64-3.77-18.34-3.77-16.61,0-25.78,11.21-25.78,25.78s8.97,25.38,24.15,25.38c3.87,0,6.93-.41,9.38-1.02v-18.55h-15.08v-11.21h28.74v38.32c-7.54,2.04-15.39,3.67-23.03,3.67-23.03,0-39.03-11.52-39.03-35.57s14.88-38.01,39.03-38.01c8.26,0,14.78,1.12,20.89,2.96l-.92,12.03Z"/><path class="cls-2" d="M661.89,63.15c-5.5-2.55-12.64-3.77-18.34-3.77-16.61,0-25.78,11.21-25.78,25.78s8.97,25.38,24.15,25.38c3.87,0,6.93-.41,9.38-1.02v-18.55h-15.08v-11.21h28.74v38.32c-7.54,2.04-15.39,3.67-23.03,3.67-23.03,0-39.03-11.52-39.03-35.57s14.88-38.01,39.03-38.01c8.26,0,14.78,1.12,20.89,2.96l-.92,12.03Z"/><rect class="cls-3" x="335.82" y="10.21" width="6.92" height="149.65"/></svg>